<svg version="1.1" id="Layer_1" xmlns="http://www.w3.org/2000/svg" xmlns:xlink="http://www.w3.org/1999/xlink" x="0px" y="0px"
	 width="100%" viewBox="0 0 500 500" enable-background="new 0 0 500 500" xml:space="preserve">
<path fill="#C4C1AA" opacity="1.000000" stroke="none" 
	d="
M283.000000,501.000000 
	C188.666687,501.000000 94.833382,501.000000 1.000050,501.000000 
	C1.000034,334.333405 1.000034,167.666794 1.000017,1.000140 
	C167.666565,1.000093 334.333130,1.000093 500.999756,1.000047 
	C500.999847,167.666519 500.999847,334.333038 500.999939,500.999786 
	C428.500000,501.000000 356.000000,501.000000 283.000000,501.000000 
M237.791397,465.551178 
	C246.840439,465.379242 255.889465,465.207336 265.307587,464.720490 
	C265.539246,464.494171 265.772430,464.269470 266.650146,463.609863 
	C272.421082,463.024841 278.312103,462.986664 283.940155,461.750885 
	C300.010468,458.222198 316.516296,456.210388 331.433472,448.407166 
	C336.029388,446.003021 341.337219,444.929565 345.856476,442.415314 
	C355.765564,436.902496 365.573608,431.156281 375.066132,424.958801 
	C388.343536,416.290253 400.118134,405.585388 410.412292,393.696442 
	C421.322937,381.095428 431.762909,367.909515 438.484314,352.284424 
	C442.859650,342.113159 448.080292,332.300659 452.319519,322.077484 
	C455.033447,315.532745 456.649139,308.532562 459.015961,301.897461 
	C459.063171,301.850006 459.110352,301.802521 459.157532,301.755035 
	C459.049561,301.779480 458.941559,301.803925 458.276184,301.550537 
	C459.190582,296.536957 460.130676,291.527924 461.010468,286.508270 
	C461.611694,283.077881 462.185394,279.640686 462.666351,276.191864 
	C463.084839,273.190765 463.368042,270.170441 463.687195,267.156097 
	C463.832794,265.780975 463.920929,264.399811 464.550354,263.222870 
	C464.952545,263.337158 465.354736,263.451416 465.756927,263.565704 
	C465.806976,255.316742 465.857025,247.067795 465.907043,238.818817 
	C465.279144,238.874695 464.651215,238.930573 463.833313,238.187943 
	C462.613739,228.981491 462.734314,219.710739 460.428619,210.503601 
	C458.004211,200.822617 456.594910,190.905228 452.661224,181.616989 
	C449.052887,173.096924 446.012573,164.305389 441.935730,156.020355 
	C428.728851,129.180923 410.684540,105.973343 387.481537,87.067932 
	C336.273712,45.344685 277.832275,29.393925 212.811203,41.079773 
	C148.731766,52.596390 99.862938,87.320572 66.649788,143.189850 
	C39.314339,189.171997 31.249552,239.163940 41.367867,291.472870 
	C51.435909,343.521912 78.009209,386.072144 119.663910,419.097076 
	C133.379211,429.970947 147.773300,439.656219 164.282501,445.772278 
	C175.589951,449.961334 186.965775,453.978424 198.399689,457.807678 
	C203.451599,459.499634 208.658234,460.956146 213.910797,461.767700 
	C221.213516,462.896027 228.625443,463.317688 236.345032,464.423889 
	C236.612610,464.644836 236.880188,464.865784 237.791397,465.551178 
z"/>
<path fill="#231F20" opacity="1.000000" stroke="none" 
	d="
M235.990616,464.041809 
	C228.625443,463.317688 221.213516,462.896027 213.910797,461.767700 
	C208.658234,460.956146 203.451599,459.499634 198.399689,457.807678 
	C186.965775,453.978424 175.589951,449.961334 164.282501,445.772278 
	C147.773300,439.656219 133.379211,429.970947 119.663910,419.097076 
	C78.009209,386.072144 51.435909,343.521912 41.367867,291.472870 
	C31.249552,239.163940 39.314339,189.171997 66.649788,143.189850 
	C99.862938,87.320572 148.731766,52.596390 212.811203,41.079773 
	C277.832275,29.393925 336.273712,45.344685 387.481537,87.067932 
	C410.684540,105.973343 428.728851,129.180923 441.935730,156.020355 
	C446.012573,164.305389 449.052887,173.096924 452.661224,181.616989 
	C456.594910,190.905228 458.004211,200.822617 460.428619,210.503601 
	C462.734314,219.710739 462.613739,228.981491 463.898987,239.055908 
	C463.988159,247.623032 464.011627,255.322220 464.035095,263.021393 
	C463.920929,264.399811 463.832794,265.780975 463.687195,267.156097 
	C463.368042,270.170441 463.084839,273.190765 462.666351,276.191864 
	C462.185394,279.640686 461.611694,283.077881 461.010468,286.508270 
	C460.130676,291.527924 459.190582,296.536957 458.535706,301.666565 
	C458.795197,301.782623 458.757172,301.736572 458.757172,301.736572 
	C456.649139,308.532562 455.033447,315.532745 452.319519,322.077484 
	C448.080292,332.300659 442.859650,342.113159 438.484314,352.284424 
	C431.762909,367.909515 421.322937,381.095428 410.412292,393.696442 
	C400.118134,405.585388 388.343536,416.290253 375.066132,424.958801 
	C365.573608,431.156281 355.765564,436.902496 345.856476,442.415314 
	C341.337219,444.929565 336.029388,446.003021 331.433472,448.407166 
	C316.516296,456.210388 300.010468,458.222198 283.940155,461.750885 
	C278.312103,462.986664 272.421082,463.024841 265.862946,463.755920 
	C255.380707,463.948547 245.685654,463.995178 235.990616,464.041809 
M248.689362,295.882843 
	C248.470657,299.480011 248.251968,303.077209 248.028778,306.748413 
	C251.618088,306.748413 254.689911,306.748413 257.601440,306.748413 
	C257.601440,288.741852 257.601440,270.999969 257.601440,253.272293 
	C277.126740,250.657501 289.076324,257.259644 296.773102,274.913879 
	C298.033600,277.805145 298.713013,280.999207 300.272766,283.700012 
	C303.403992,289.121979 306.378754,294.812775 310.484802,299.447632 
	C315.492584,305.100281 326.831543,307.928436 332.613068,305.760315 
	C330.902161,305.242859 329.779907,304.802948 328.616211,304.568329 
	C322.544891,303.344299 317.905853,299.977081 314.767670,294.773590 
	C312.460724,290.948395 310.281677,286.961456 308.702454,282.797455 
	C303.532013,269.164032 296.802582,257.073120 280.431580,252.689529 
	C285.395020,251.648788 289.264130,251.072220 292.995270,250.010544 
	C303.633636,246.983475 312.158569,241.470917 315.005585,229.900742 
	C319.619263,211.150925 311.064880,195.904861 292.091125,192.431091 
	C277.818726,189.818085 263.057953,189.872726 248.737000,188.757172 
	C248.737000,225.052414 248.737000,260.002380 248.689362,295.882843 
M181.905014,242.500031 
	C181.905014,225.058090 181.905014,207.616165 181.905014,189.961609 
	C179.165237,189.961609 176.076599,189.961609 172.825150,189.961609 
	C172.825150,228.956299 172.825150,267.709290 172.825150,306.622620 
	C172.831085,306.625824 173.112045,306.909546 173.393814,306.910339 
	C191.885040,306.963409 210.377457,307.085480 228.865662,306.862549 
	C230.455795,306.843384 232.018204,304.523834 234.437531,302.602570 
	C215.850342,303.717560 199.037140,304.726105 181.905014,305.753815 
	C181.905014,284.110107 181.905014,263.805084 181.905014,242.500031 
z"/>
<path fill="#939081" opacity="1.000000" stroke="none" 
	d="
M464.292725,263.122131 
	C464.011627,255.322220 463.988159,247.623032 463.994019,239.455154 
	C464.651215,238.930573 465.279144,238.874695 465.907043,238.818817 
	C465.857025,247.067795 465.806976,255.316742 465.756927,263.565704 
	C465.354736,263.451416 464.952545,263.337158 464.292725,263.122131 
z"/>
<path fill="#E2E1E0" opacity="1.000000" stroke="none" 
	d="
M236.167816,464.232849 
	C245.685654,463.995178 255.380707,463.948547 265.541443,463.974182 
	C265.772430,464.269470 265.539246,464.494171 264.661316,464.898041 
	C255.059296,465.079315 246.103531,465.083038 237.147766,465.086731 
	C236.880188,464.865784 236.612610,464.644836 236.167816,464.232849 
z"/>
<path fill="#8F8C7D" opacity="1.000000" stroke="none" 
	d="
M237.469574,465.318970 
	C246.103531,465.083038 255.059296,465.079315 264.476807,465.055481 
	C255.889465,465.207336 246.840439,465.379242 237.469574,465.318970 
z"/>
<path fill="#231F20" opacity="1.000000" stroke="none" 
	d="
M458.814392,301.805481 
	C458.941559,301.803925 459.049561,301.779480 459.157532,301.755066 
	C459.110352,301.802521 459.063171,301.850006 458.886566,301.817017 
	C458.757172,301.736572 458.795197,301.782623 458.814392,301.805481 
z"/>
<path fill="#F5F4F3" opacity="1.000000" stroke="none" 
	d="
M248.713181,295.417603 
	C248.737000,260.002380 248.737000,225.052414 248.737000,188.757172 
	C263.057953,189.872726 277.818726,189.818085 292.091125,192.431091 
	C311.064880,195.904861 319.619263,211.150925 315.005585,229.900742 
	C312.158569,241.470917 303.633636,246.983475 292.995270,250.010544 
	C289.264130,251.072220 285.395020,251.648788 280.431580,252.689529 
	C296.802582,257.073120 303.532013,269.164032 308.702454,282.797455 
	C310.281677,286.961456 312.460724,290.948395 314.767670,294.773590 
	C317.905853,299.977081 322.544891,303.344299 328.616211,304.568329 
	C329.779907,304.802948 330.902161,305.242859 332.613068,305.760315 
	C326.831543,307.928436 315.492584,305.100281 310.484802,299.447632 
	C306.378754,294.812775 303.403992,289.121979 300.272766,283.700012 
	C298.713013,280.999207 298.033600,277.805145 296.773102,274.913879 
	C289.076324,257.259644 277.126740,250.657501 257.601440,253.272293 
	C257.601440,270.999969 257.601440,288.741852 257.601440,306.748413 
	C254.689911,306.748413 251.618088,306.748413 248.028778,306.748413 
	C248.251968,303.077209 248.470657,299.480011 248.713181,295.417603 
M295.143219,197.198654 
	C283.371948,190.540054 270.517242,191.455673 257.460266,191.430313 
	C257.460266,211.388184 257.460266,230.928360 257.460266,251.741882 
	C267.373474,250.709534 277.028625,250.426498 286.362122,248.546387 
	C297.633453,246.275986 304.920135,238.934280 306.578857,227.248535 
	C308.232452,215.599060 306.320953,204.949081 295.143219,197.198654 
z"/>
<path fill="#EFEEED" opacity="1.000000" stroke="none" 
	d="
M181.905014,243.000031 
	C181.905014,263.805084 181.905014,284.110107 181.905014,305.753815 
	C199.037140,304.726105 215.850342,303.717560 234.437531,302.602570 
	C232.018204,304.523834 230.455795,306.843384 228.865662,306.862549 
	C210.377457,307.085480 191.885040,306.963409 173.393814,306.910339 
	C173.112045,306.909546 172.831085,306.625824 172.825150,306.622620 
	C172.825150,267.709290 172.825150,228.956299 172.825150,189.961609 
	C176.076599,189.961609 179.165237,189.961609 181.905014,189.961609 
	C181.905014,207.616165 181.905014,225.058090 181.905014,243.000031 
z"/>
<path fill="#262223" opacity="1.000000" stroke="none" 
	d="
M295.442200,197.413971 
	C306.320953,204.949081 308.232452,215.599060 306.578857,227.248535 
	C304.920135,238.934280 297.633453,246.275986 286.362122,248.546387 
	C277.028625,250.426498 267.373474,250.709534 257.460266,251.741882 
	C257.460266,230.928360 257.460266,211.388184 257.460266,191.430313 
	C270.517242,191.455673 283.371948,190.540054 295.442200,197.413971 
z"/>
</svg>